<?xml version="1.0" encoding="utf-8"?>
<!-- Uploaded to: SVG Repo, www.svgrepo.com, Generator: SVG Repo Mixer Tools -->
<svg width="800px" height="800px" viewBox="0 0 1024 1024" class="icon"  version="1.1" xmlns="http://www.w3.org/2000/svg"><path d="M873.570997 452.44713c14.694864 0 26.296073-12.374622 26.296072-27.069486s-11.601208-27.069486-26.296072-27.069487-26.296073 11.601208-26.296073 26.296073l-65.740181 12.374622c-2.320242-24.749245-9.280967-48.725076-19.335347-70.380665l49.498489-44.084592c4.640483 4.640483 11.601208 7.734139 18.561934 7.734139 14.694864 0 26.296073-12.374622 26.296072-27.069486s-11.601208-27.069486-26.296072-27.069487-26.296073 12.374622-26.296073 27.069487c0 2.320242 0.773414 4.640483 0.773414 6.960725l-49.498489 44.084592c-8.507553-15.468278-18.561934-29.389728-30.936556-41.76435l32.483383-71.927493c3.093656 1.546828 6.960725 2.320242 10.827795 2.320242 14.694864 0 26.296073-12.374622 26.296073-27.069487s-11.601208-27.069486-26.296073-27.069486-26.296073 12.374622-26.296072 27.069486c0 5.413897 1.546828 10.827795 4.640483 15.468278l-31.70997 71.154079c-13.148036-12.374622-27.8429-22.429003-44.084592-30.163142l23.202417-90.489426c13.148036-1.546828 22.429003-13.148036 22.429003-27.069487 0-14.694864-11.601208-27.069486-26.296073-27.069486s-26.296073 12.374622-26.296072 27.069486c0 11.601208 6.960725 20.882175 16.241692 25.522659L657.015106 266.827795c-17.015106-6.960725-35.577039-12.374622-54.138973-14.694864v-92.809668c11.601208-3.093656 20.882175-13.92145 20.882175-26.296073 0-14.694864-11.601208-27.069486-26.296072-27.069486s-26.296073 12.374622-26.296073 27.069486c0 12.374622 7.734139 22.429003 18.561934 25.522659v92.036254h-58.006043V166.283988c8.507553-4.640483 13.92145-13.148036 13.921451-23.975831 0-14.694864-11.601208-27.069486-26.296073-27.069486s-26.296073 12.374622-26.296072 27.069486 11.601208 26.296073 25.522658 27.069487v80.435045H486.864048c-8.507553 0-17.015106 0.773414-25.522658 1.546828l-10.054381-85.848943c7.734139-4.640483 13.148036-13.148036 13.148036-23.202417 0-14.694864-11.601208-27.069486-26.296072-27.069486s-26.296073 12.374622-26.296073 27.069486 11.601208 27.069486 26.296073 27.069487L448.193353 253.679758c-16.241692 3.093656-31.70997 8.507553-45.631419 15.468278l-19.335348-88.169184c3.867069-4.640483 6.187311-10.827795 6.187311-17.015106 0-14.694864-11.601208-27.069486-26.296072-27.069486s-26.296073 12.374622-26.296073 27.069486 11.601208 27.069486 26.296073 27.069487c3.093656 0 5.413897-0.773414 7.734139-1.546828l19.335347 86.622356c-16.241692 9.280967-30.936556 20.882175-44.084592 34.030212l-33.256798-74.247734c4.640483-4.640483 7.734139-11.601208 7.734139-19.335348 0-14.694864-11.601208-27.069486-26.296072-27.069486s-26.296073 12.374622-26.296073 27.069486 11.601208 27.069486 26.296073 27.069487c2.320242 0 4.640483-0.773414 6.960725-0.773414l35.577039 78.888217c-10.827795 12.374622-19.335347 25.522659-27.069486 40.217523l-60.326284-54.138973v-3.093655c0-14.694864-11.601208-27.069486-26.296073-27.069487s-26.296073 12.374622-26.296072 27.069487 11.601208 27.069486 26.296072 27.069486c8.507553 0 15.468278-3.867069 20.882176-10.054381l59.55287 53.365559c-8.507553 20.108761-14.694864 41.76435-16.241692 64.966768l-77.34139-13.921451c-3.093656-11.601208-13.148036-20.108761-25.522658-20.108761-14.694864 0-26.296073 12.374622-26.296073 27.069486s11.601208 27.069486 26.296073 27.069487c12.374622 0 22.429003-8.507553 25.522658-20.108761l76.567976 13.92145v5.413897c0 18.561934 2.320242 36.350453 6.960725 53.365559L232.410876 533.655589c-4.640483-6.187311-12.374622-10.054381-20.108761-10.054381-14.694864 0-26.296073 12.374622-26.296073 27.069487s11.601208 27.069486 26.296073 27.069486 26.296073-12.374622 26.296072-27.069486c0-1.546828 0-3.093656-0.773414-3.86707l59.552871-20.108761c6.187311 17.78852 13.92145 34.030211 23.97583 49.498489l-53.365559 52.592145c-3.867069-2.320242-8.507553-3.867069-13.148036-3.867069-14.694864 0-26.296073 12.374622-26.296072 27.069486s11.601208 27.069486 26.296072 27.069487 26.296073-12.374622 26.296073-27.069487c0-4.640483-1.546828-9.280967-3.86707-13.148036l51.818731-51.045317c16.241692 20.882175 35.577039 38.670695 58.006043 51.818731l-27.842901 69.607251c-3.093656-0.773414-6.187311-1.546828-9.280966-1.546828-14.694864 0-26.296073 12.374622-26.296073 27.069486s11.601208 27.069486 26.296073 27.069487 26.296073-12.374622 26.296072-27.069487c0-6.187311-2.320242-12.374622-6.187311-17.015105l28.616314-71.154079c16.241692 8.507553 33.256798 13.92145 51.818731 17.78852l-6.187311 81.981873c-12.374622 2.320242-20.882175 13.92145-20.882175 26.296072 0 14.694864 11.601208 27.069486 26.296072 27.069487s26.296073-12.374622 26.296073-27.069487c0-12.374622-7.734139-22.429003-18.561934-25.522658l6.187311-80.435046c7.734139 0.773414 16.241692 1.546828 24.749245 1.546828h92.036254c4.640483 0 9.280967 0 13.148036-0.773414l6.187311 85.075529c-6.960725 4.640483-11.601208 13.148036-11.601208 22.429003 0 14.694864 11.601208 27.069486 26.296072 27.069486s26.296073-12.374622 26.296073-27.069486-11.601208-27.069486-26.296073-27.069486h-1.546827L606.743202 665.135952c18.561934-2.320242 36.350453-7.734139 53.365559-15.468278l23.202417 58.006042c-3.093656 4.640483-5.413897 10.054381-5.413897 16.241692 0 14.694864 11.601208 27.069486 26.296072 27.069486s26.296073-12.374622 26.296073-27.069486-11.601208-27.069486-26.296073-27.069487c-3.093656 0-6.960725 0.773414-9.280966 1.546828l-22.429003-54.138973c23.975831-12.374622 44.858006-30.163142 61.873111-51.045317l40.217523 39.444109c-1.546828 3.093656-2.320242 6.960725-2.320242 11.601208 0 14.694864 11.601208 27.069486 26.296073 27.069487s26.296073-12.374622 26.296072-27.069487-11.601208-27.069486-26.296072-27.069486c-5.413897 0-10.827795 1.546828-15.468278 4.640483l-40.217523-39.444108c11.601208-16.241692 20.882175-34.030211 27.069487-52.592145l55.6858 18.561933v3.86707c0 14.694864 11.601208 27.069486 26.296073 27.069486s26.296073-12.374622 26.296072-27.069486-11.601208-27.069486-26.296072-27.069487c-8.507553 0-16.241692 3.867069-20.882175 10.054381l-56.459215-19.335348c4.640483-17.78852 7.734139-37.123867 7.734139-57.232628v-7.734139l68.833837-12.374622c3.867069 8.507553 12.374622 13.92145 22.429003 13.92145z" fill="#db1832" /><path d="M511.613 654.308c3.867 102.864-12.375 215.009-37.897 317.873 41.764-6.187 79.662-3.094 117.559 9.281-29.39-109.051-54.912-218.103-41.764-331.021l-37.897 3.867z" fill="#65320b" /></svg>
